# Blender v2.68 (sub 0) OBJ File: ''
# www.blender.org
mtllib lptree.mtl
o leaf2_Icosphere.009
v 0.014040 1.304732 0.519508
v -0.065102 1.145901 0.753873
v -0.292305 1.367945 0.534436
v 0.414581 1.557792 0.662326
v 0.001077 1.640458 0.097111
v 0.457794 1.658182 0.140167
v 0.305103 2.015358 0.809051
v -0.174603 1.915777 0.760483
v -0.258978 1.853762 -0.003357
v 0.248263 2.075842 0.026049
v 0.593281 2.062563 0.344115
v 0.148755 2.092952 0.243745
vn -0.190237 -0.781663 -0.593980
vn 0.584396 -0.749635 -0.310690
vn -0.188814 -0.771579 -0.607466
vn 0.088792 -0.778425 -0.621426
vn 0.558944 -0.821646 -0.111712
vn 0.352807 -0.208116 0.912258
vn -0.744626 -0.111560 0.658093
vn -0.319086 -0.693345 -0.646109
vn 0.099934 -0.215289 -0.971424
vn 0.945647 -0.324812 0.015812
vn -0.096139 -0.022218 0.995120
vn -0.980611 0.171743 0.094376
vn 0.164396 -0.249112 -0.954420
vn 0.674040 0.139973 -0.725312
vn 0.847984 0.033266 0.528977
vn -0.218052 0.956933 0.191656
vn -0.499058 0.866435 -0.015218
vn -0.377235 0.893757 -0.242679
vn 0.077746 0.996056 -0.042749
vn 0.039515 0.991351 0.125145
usemtl Material.030
s off
f 1//1 2//1 3//1
f 2//2 1//2 4//2
f 1//3 3//3 5//3
f 1//4 5//4 6//4
f 1//5 6//5 4//5
f 2//6 4//6 7//6
f 3//7 2//7 8//7
f 5//8 3//8 9//8
f 6//9 5//9 10//9
f 4//10 6//10 11//10
f 2//11 7//11 8//11
f 3//12 8//12 9//12
f 5//13 9//13 10//13
f 6//14 10//14 11//14
f 4//15 11//15 7//15
f 8//16 7//16 12//16
f 9//17 8//17 12//17
f 10//18 9//18 12//18
f 11//19 10//19 12//19
f 7//20 11//20 12//20
o leaf3_Icosphere.010
v -0.595024 1.226490 -0.411684
v -0.664213 1.377924 -0.096761
v -1.041561 1.435786 -0.370587
v -0.299666 1.375367 -0.313550
v -0.700362 1.119954 -0.693120
v -0.377056 1.350071 -0.720000
v -0.438790 1.732419 0.039895
v -0.875090 1.725847 -0.178097
v -0.952775 1.692600 -0.590287
v -0.587679 1.690293 -0.808379
v -0.215864 1.677294 -0.674107
v -0.655489 1.783288 -0.445118
vn -0.374739 -0.865023 0.333624
vn 0.270511 -0.843065 0.464828
vn -0.346795 -0.826840 0.442797
vn 0.582472 -0.808086 0.087884
vn 0.458333 -0.888204 -0.031990
vn 0.424736 -0.547911 0.720689
vn -0.595672 -0.177928 0.783273
vn -0.773820 -0.235497 -0.587999
vn 0.068874 -0.210670 -0.975128
vn 0.895548 -0.420911 -0.144321
vn -0.445382 -0.061126 0.893252
vn -0.895338 0.424596 0.134496
vn -0.511833 -0.071878 -0.856072
vn 0.338374 -0.034799 -0.940368
vn 0.953058 0.083152 0.291144
vn -0.085656 0.986196 0.141704
vn -0.280736 0.959473 -0.024480
vn -0.156651 0.949380 -0.272284
vn 0.115453 0.967246 -0.226064
vn 0.233281 0.972407 -0.002240
usemtl Material.031
s off
f 13//21 14//21 15//21
f 14//22 13//22 16//22
f 13//23 15//23 17//23
f 13//24 17//24 18//24
f 13//25 18//25 16//25
f 14//26 16//26 19//26
f 15//27 14//27 20//27
f 17//28 15//28 21//28
f 18//29 17//29 22//29
f 16//30 18//30 23//30
f 14//31 19//31 20//31
f 15//32 20//32 21//32
f 17//33 21//33 22//33
f 18//34 22//34 23//34
f 16//35 23//35 19//35
f 20//36 19//36 24//36
f 21//37 20//37 24//37
f 22//38 21//38 24//38
f 23//39 22//39 24//39
f 19//40 23//40 24//40
o leaf1_Icosphere.011
v 0.673487 1.212808 -0.441339
v 0.531883 1.224349 -0.102826
v 0.168347 1.389839 -0.500834
v 0.924472 1.195567 -0.174841
v 0.601553 1.431123 -0.716498
v 1.002609 1.260224 -0.574368
v 0.870517 1.312552 -0.045467
v 0.368975 1.565576 0.010488
v 0.164113 1.755726 -0.410562
v 0.905476 1.601685 -0.652075
v 1.178674 1.518695 -0.416885
v 0.769917 1.674391 -0.235924
vn -0.318421 -0.942546 -0.101065
vn -0.072442 -0.997366 0.003700
vn -0.209994 -0.791901 -0.573407
vn -0.126666 -0.792927 -0.596005
vn 0.084221 -0.986116 -0.143116
vn 0.072614 -0.724518 0.685420
vn -0.732216 -0.502309 0.459940
vn -0.451712 0.208777 -0.867392
vn 0.278455 -0.137122 -0.950610
vn 0.806673 -0.587667 0.062660
vn -0.069036 -0.343935 0.936452
vn -0.912273 -0.108031 0.395079
vn -0.146305 0.566904 -0.810687
vn 0.654850 0.014322 -0.755623
vn 0.807784 -0.228416 0.543426
vn 0.345401 0.510510 0.787450
vn 0.004320 0.912150 0.409834
vn 0.165274 0.979253 -0.117249
vn 0.333781 0.941005 -0.055676
vn 0.503039 0.507920 0.699264
usemtl Material.032
s off
f 25//41 26//41 27//41
f 26//42 25//42 28//42
f 25//43 27//43 29//43
f 25//44 29//44 30//44
f 25//45 30//45 28//45
f 26//46 28//46 31//46
f 27//47 26//47 32//47
f 29//48 27//48 33//48
f 30//49 29//49 34//49
f 28//50 30//50 35//50
f 26//51 31//51 32//51
f 27//52 32//52 33//52
f 29//53 33//53 34//53
f 30//54 34//54 35//54
f 28//55 35//55 31//55
f 32//56 31//56 36//56
f 33//57 32//57 36//57
f 34//58 33//58 36//58
f 35//59 34//59 36//59
f 31//60 35//60 36//60
o Tree.001_Cylinder.005
v 0.070345 -0.016615 -0.063581
v 0.070345 0.779965 -0.063581
v 0.059562 0.779965 0.089524
v 0.059562 -0.016615 0.089524
v -0.089382 0.779965 0.126580
v -0.089382 -0.016615 0.126580
v -0.170651 0.779965 -0.003623
v -0.170651 -0.016615 -0.003623
v 0.127484 1.450310 0.127826
v 0.046834 1.474622 0.099992
v 0.086423 1.706175 0.173706
v 0.146530 1.673758 0.191629
v -0.071934 -0.016615 -0.121149
v -0.071934 0.779965 -0.121149
v 0.136227 1.641341 0.253498
v 0.038972 1.693793 0.224500
v 0.069753 1.653723 0.273814
v -0.013433 1.465336 0.167469
v 0.029969 1.435284 0.237005
v 0.117061 1.425997 0.212505
v 0.098915 1.115137 0.032123
v 0.003153 1.131563 -0.032749
v 0.007245 1.243070 0.026279
v 0.108438 1.226862 0.064024
v -0.032345 1.011518 -0.047435
v -0.491955 1.372273 -0.376822
v -0.486262 1.389526 -0.376824
v -0.110561 1.105754 0.107060
v -0.029707 1.107624 0.181793
v -0.025752 1.216844 0.210145
v -0.065839 1.236879 0.110438
v 0.088311 1.102981 0.151015
v -0.042431 1.299988 0.657984
v -0.077563 1.292294 0.670004
v 0.123039 1.210653 0.155817
v 0.117961 1.338586 0.095925
v 0.027039 1.358846 0.063136
v -0.039636 1.351107 0.138954
v 0.010077 1.326064 0.218601
v 0.107477 1.318325 0.192008
v 0.079868 0.891689 -0.031680
v -0.052139 0.895741 -0.084292
v 0.069689 1.003413 -0.031345
v -0.144448 0.894194 0.024892
v -0.118245 1.008422 0.053408
v -0.069491 0.889185 0.144985
v -0.049599 0.998405 0.163389
v 0.069145 0.887637 0.110021
v 0.092528 0.995309 0.152627
v 0.571658 1.332591 -0.236423
v 0.570827 1.346742 -0.223947
v -0.503425 1.386433 -0.353278
v -0.503843 1.371844 -0.362866
v 0.567173 1.337216 -0.259825
v -0.496590 1.403460 -0.354974
v -0.486476 1.404317 -0.366620
v -0.095670 1.348548 0.632628
v -0.066126 1.353873 0.623217
v -0.038922 1.326930 0.631015
v -0.099746 1.320421 0.659511
v 0.554379 1.356694 -0.257577
v 0.555576 1.370411 -0.241163
v 0.559768 1.365104 -0.221826
vn 0.997529 -0.000000 0.070255
vn 0.241432 -0.000000 0.970418
vn -0.848314 -0.000000 0.529493
vn 0.381237 0.222097 -0.897403
vn 0.375075 0.000000 -0.926995
vn -0.765720 0.000000 -0.643174
vn -0.729217 0.318036 -0.605884
vn -0.831911 0.055680 0.552108
vn 0.247707 -0.203552 0.947211
vn 0.989197 -0.109438 0.097536
vn 0.479288 0.305854 -0.822640
vn 0.544586 -0.074033 -0.835431
vn -0.814164 0.089147 0.573751
vn 0.122973 -0.919021 0.374537
vn 0.980709 -0.190402 -0.044240
vn 0.375814 0.223384 -0.899369
vn -0.728074 0.318176 -0.607183
vn -0.837030 0.058437 0.544027
vn 0.243861 -0.203221 0.948279
vn 0.990319 -0.107283 0.088086
vn 0.285598 0.142851 -0.947643
vn -0.726280 0.318397 -0.609214
vn -0.844805 0.062693 0.531388
vn 0.148825 -0.295173 0.943782
vn 0.730072 -0.389145 0.561748
vn 0.392122 0.193739 -0.899281
vn -0.807288 -0.244945 0.536924
vn -0.774722 -0.113563 0.622020
vn 0.154545 -0.087361 0.984116
vn 0.664186 -0.747433 -0.014187
vn -0.768038 0.309705 -0.560536
vn -0.764190 0.315945 -0.562310
vn -0.398524 -0.841269 -0.365302
vn -0.671200 0.225561 0.706125
vn 0.652801 0.348620 -0.672544
vn 0.153255 0.966855 0.204217
vn 0.373083 0.224036 -0.900343
vn -0.727493 0.318251 -0.607841
vn -0.865509 0.161843 0.474025
vn -0.000503 0.997640 -0.068662
vn 0.999354 0.032355 -0.015619
vn 0.234238 0.599869 0.765043
vn 0.246040 0.588394 0.770232
vn 0.918178 -0.204982 0.339016
vn -0.988608 -0.119264 -0.091816
vn 0.924628 0.229660 0.303841
vn -0.942076 0.242647 -0.231549
vn 0.365999 0.225699 -0.902831
vn -0.725987 0.318433 -0.609544
vn -0.846041 0.063374 0.529337
vn 0.236867 -0.202614 0.950180
vn 0.992112 -0.103343 0.070954
vn 0.871994 0.443767 -0.206634
vn 0.885579 0.404338 -0.228606
vn -0.388942 -0.049992 -0.919905
vn -0.434628 0.895795 0.093009
vn 0.590426 0.068315 0.804195
vn -0.637492 0.517875 -0.570446
vn 0.300503 0.823354 0.481442
vn 0.000000 -1.000000 -0.000000
usemtl Material.029
s off
f 37//61 38//61 39//61 40//61
f 40//62 39//62 41//62 42//62
f 42//63 41//63 43//63 44//63
f 45//64 46//64 47//64 48//64
f 38//65 37//65 49//65 50//65
f 44//66 43//66 50//66 49//66
f 46//67 54//67 52//67 47//67
f 54//68 55//68 53//68 52//68
f 55//69 56//69 51//69 53//69
f 56//70 45//70 48//70 51//70
f 57//71 58//71 59//71 60//71
f 58//72 61//72 62//72 63//72
f 64//73 65//73 66//73 67//73
f 65//74 68//74 69//74 70//74
f 68//75 57//75 60//75 71//75
f 72//76 73//76 46//76 45//76
f 73//77 74//77 54//77 46//77
f 74//78 75//78 55//78 54//78
f 75//79 76//79 56//79 55//79
f 76//80 72//80 45//80 56//80
f 77//81 78//81 61//81 79//81
f 78//82 80//82 81//82 61//82
f 80//83 82//83 83//83 81//83
f 82//84 84//84 85//84 83//84
f 85//85 84//85 86//85 87//85
f 79//86 61//86 58//86 57//86
f 81//87 64//87 88//87 89//87
f 81//88 83//88 65//88 64//88
f 83//89 85//89 68//89 65//89
f 84//90 77//90 90//90 86//90
f 63//91 88//91 91//91 92//91
f 62//92 89//92 88//92 63//92
f 61//93 81//93 89//93 62//93
f 64//94 67//94 91//94 88//94
f 59//95 58//95 63//95 92//95
f 67//96 59//96 92//96 91//96
f 60//97 59//97 73//97 72//97
f 59//98 67//98 74//98 73//98
f 67//99 66//99 75//99 74//99
f 76//100 75//100 93//100 94//100
f 71//101 60//101 72//101 76//101
f 70//102 69//102 95//102 96//102
f 96//103 95//103 94//103 93//103
f 68//104 71//104 95//104 69//104
f 66//105 65//105 70//105 96//105
f 71//106 76//106 94//106 95//106
f 75//107 66//107 96//107 93//107
f 38//108 50//108 78//108 77//108
f 50//109 43//109 80//109 78//109
f 43//110 41//110 82//110 80//110
f 41//111 39//111 84//111 82//111
f 39//112 38//112 77//112 84//112
f 86//113 90//113 97//113 87//113
f 87//114 97//114 98//114 99//114
f 77//115 79//115 97//115 90//115
f 57//116 68//116 99//116 98//116
f 68//117 85//117 87//117 99//117
f 79//118 57//118 98//118 97//118
f 51//119 48//119 47//119 52//119 53//119
f 44//120 49//120 37//120 40//120 42//120
